<svg width="1200" height="420" viewBox="0 0 1200 420" fill="none" xmlns="http://www.w3.org/2000/svg" role="img" aria-labelledby="title desc">
  <title id="title">Broccolo1D wallet QA pipeline</title>
  <desc id="desc">A GitHub-renderable diagram showing dapp UI, Playwright fixtures, guarded wallet runtime, and verified artifacts.</desc>
  <defs>
    <linearGradient id="bg" x1="0" y1="0" x2="1200" y2="420" gradientUnits="userSpaceOnUse">
      <stop stop-color="#07150F"/>
      <stop offset="0.55" stop-color="#0E2A1A"/>
      <stop offset="1" stop-color="#102A43"/>
    </linearGradient>
    <linearGradient id="leaf" x1="150" y1="80" x2="1050" y2="340" gradientUnits="userSpaceOnUse">
      <stop stop-color="#B8F7A1"/>
      <stop offset="1" stop-color="#55D6BE"/>
    </linearGradient>
    <filter id="shadow" x="-20%" y="-20%" width="140%" height="140%">
      <feDropShadow dx="0" dy="18" stdDeviation="18" flood-color="#000" flood-opacity="0.28"/>
    </filter>
  </defs>
  <rect width="1200" height="420" rx="34" fill="url(#bg)"/>
  <path d="M83 318C228 220 344 376 500 280C642 192 756 58 927 132C1036 179 1082 276 1128 337" stroke="url(#leaf)" stroke-width="3" stroke-linecap="round" opacity="0.35"/>
  <g opacity="0.2" stroke="#B8F7A1">
    <circle cx="104" cy="92" r="38"/><circle cx="1115" cy="89" r="54"/><circle cx="1042" cy="334" r="28"/>
  </g>
  <text x="70" y="86" fill="#F2FFF6" font-family="Inter, ui-sans-serif, system-ui, -apple-system, Segoe UI, sans-serif" font-size="42" font-weight="800">brocolli-test</text>
  <text x="70" y="126" fill="#C9F8D5" font-family="Inter, ui-sans-serif, system-ui, -apple-system, Segoe UI, sans-serif" font-size="18">Policy-gated wallet automation for product-shaped dapp QA</text>
  <g filter="url(#shadow)" font-family="Inter, ui-sans-serif, system-ui, -apple-system, Segoe UI, sans-serif">
    <g transform="translate(70 178)">
      <rect width="210" height="126" rx="22" fill="#10281B" stroke="#6EE7A8" stroke-opacity="0.7"/>
      <text x="28" y="46" fill="#FFFFFF" font-size="21" font-weight="700">Dapp-owned UI</text>
      <text x="28" y="78" fill="#CBEBD4" font-size="14">routes · selectors · assertions</text>
      <text x="28" y="101" fill="#8CECB7" font-size="13">no secret material</text>
    </g>
    <path d="M300 241H380" stroke="#9AF2B2" stroke-width="4" stroke-linecap="round"/><path d="M370 229L386 241L370 253" stroke="#9AF2B2" stroke-width="4" stroke-linecap="round" stroke-linejoin="round"/>
    <g transform="translate(400 178)">
      <rect width="240" height="126" rx="22" fill="#10281B" stroke="#6EE7A8" stroke-opacity="0.7"/>
      <text x="28" y="46" fill="#FFFFFF" font-size="21" font-weight="700">@broccolo1d/playwright</text>
      <text x="28" y="78" fill="#CBEBD4" font-size="14">fixtures · scenarios · contracts</text>
      <text x="28" y="101" fill="#8CECB7" font-size="13">screenshots + manifests</text>
    </g>
    <path d="M660 241H740" stroke="#9AF2B2" stroke-width="4" stroke-linecap="round"/><path d="M730 229L746 241L730 253" stroke="#9AF2B2" stroke-width="4" stroke-linecap="round" stroke-linejoin="round"/>
    <g transform="translate(760 178)">
      <rect width="220" height="126" rx="22" fill="#10281B" stroke="#6EE7A8" stroke-opacity="0.7"/>
      <text x="28" y="46" fill="#FFFFFF" font-size="21" font-weight="700">wallet-browser</text>
      <text x="28" y="78" fill="#CBEBD4" font-size="14">Chromium · MetaMask</text>
      <text x="28" y="101" fill="#8CECB7" font-size="13">fail-closed prompts</text>
    </g>
    <path d="M1000 241H1070" stroke="#9AF2B2" stroke-width="4" stroke-linecap="round"/><path d="M1060 229L1076 241L1060 253" stroke="#9AF2B2" stroke-width="4" stroke-linecap="round" stroke-linejoin="round"/>
    <g transform="translate(900 324)">
      <rect width="230" height="52" rx="26" fill="#E7FFF0" fill-opacity="0.95"/>
      <text x="25" y="33" fill="#0E2A1A" font-size="16" font-weight="800">verified public artifacts</text>
    </g>
  </g>
</svg>
